<?xml version="1.0" encoding="UTF-8" standalone="no"?>
<!-- Created with Inkscape (http://www.inkscape.org/) -->

<svg
   xmlns:dc="http://purl.org/dc/elements/1.1/"
   xmlns:cc="http://creativecommons.org/ns#"
   xmlns:rdf="http://www.w3.org/1999/02/22-rdf-syntax-ns#"
   xmlns:svg="http://www.w3.org/2000/svg"
   xmlns="http://www.w3.org/2000/svg"
   xmlns:sodipodi="http://sodipodi.sourceforge.net/DTD/sodipodi-0.dtd"
   xmlns:inkscape="http://www.inkscape.org/namespaces/inkscape"
   id="svg2"
   version="1.1"
   inkscape:version="0.91 r13725"
   width="3543.3069"
   height="1062.9921"
   xml:space="preserve"
   sodipodi:docname="logo-engrave.svg"><metadata
     id="metadata8"><rdf:RDF><cc:Work
         rdf:about=""><dc:format>image/svg+xml</dc:format><dc:type
           rdf:resource="http://purl.org/dc/dcmitype/StillImage" /><dc:title></dc:title></cc:Work></rdf:RDF></metadata><defs
     id="defs6"><clipPath
       clipPathUnits="userSpaceOnUse"
       id="clipPath16"><path
         d="m 0,841.89 595.276,0 L 595.276,0 0,0 0,841.89 z"
         id="path18"
         inkscape:connector-curvature="0" /></clipPath></defs><sodipodi:namedview
     pagecolor="#ffffff"
     bordercolor="#666666"
     borderopacity="1"
     objecttolerance="10"
     gridtolerance="10"
     guidetolerance="10"
     inkscape:pageopacity="0"
     inkscape:pageshadow="2"
     inkscape:window-width="1600"
     inkscape:window-height="850"
     id="namedview4"
     showgrid="false"
     inkscape:zoom="6.061273"
     inkscape:cx="258.39283"
     inkscape:cy="113.7891"
     inkscape:window-x="0"
     inkscape:window-y="0"
     inkscape:window-maximized="1"
     inkscape:current-layer="g10"
     inkscape:document-units="mm"
     units="mm" /><g
     id="g10"
     inkscape:groupmode="layer"
     inkscape:label="Logo2"
     transform="matrix(1.25,0,0,-1.25,0,1062.9921)"><g
       id="g4162"
       transform="matrix(0.92241791,0,0,0.92241791,130.73301,68.289409)"
       style="fill:#000000;fill-opacity:1"><g
         id="g3253"
         style="fill:#000000;fill-opacity:1"><path
           d="m 24.311499,43.50146 16.052,-9.446 1.92,1.326 c -3.769,5.898 -10.365,9.818 -17.89,9.825 -7.53,0.003 -14.146,-3.932 -17.915,-9.849 l 1.849,-1.141 4.935,2.861 3.467,-1.958 c -0.112,-0.348 -0.176,-0.703 -0.177,-1.071 -0.003,-2.732 3.244,-4.946 7.237,-4.943 4,-0.005 7.244,2.208 7.25,4.935 0,2.729 -3.244,4.944 -7.246,4.948 -0.887,-0.002 -1.741,-0.118 -2.526,-0.321 l -2.523,1.598 5.567,3.236 z"
           style="fill:#000000;fill-opacity:1;fill-rule:nonzero;stroke:none"
           id="path20"
           inkscape:connector-curvature="0" /><path
           d="m 23.472499,5.37046 -4.336,2.441 -0.174,4.954 c 0.207,0.072 0.409,0.159 0.608,0.266 2.361,1.366 2.656,5.282 0.66,8.749 -2.001,3.462 -5.53,5.163 -7.895,3.8 -2.363,-1.367 -2.654,-5.277 -0.672,-8.738 0.37,-0.625 0.777,-1.181 1.22,-1.686 l -0.159,-3.725 -5.211,2.944 0.089,18.546 -1.886,1.134 c -1.618,-2.991 -2.541,-6.415 -2.543,-10.056 -0.004,-11.422 9.025,-20.741 20.338,-21.204 l -0.039,2.575 z"
           style="fill:#000000;fill-opacity:1;fill-rule:nonzero;stroke:none"
           id="path22"
           inkscape:connector-curvature="0" /><path
           d="m 43.044499,34.09346 -2.214,-1.558 -0.002,-5.492 -3.571,-2.126 c -0.234,0.257 -0.507,0.479 -0.816,0.657 -2.352,1.362 -5.904,-0.338 -7.904,-3.801 -2.002,-3.461 -1.699,-7.377 0.654,-8.745 2.369,-1.366 5.904,0.338 7.904,3.802 0.452,0.78 0.776,1.576 0.997,2.364 l 2.732,1.55 0,-6.39 -15.838,-9.056 0.006,-2.505 c 11.427,0.318 20.603,9.677 20.608,21.186 0.007,3.665 -0.923,7.107 -2.556,10.114"
           style="fill:#000000;fill-opacity:1;fill-rule:nonzero;stroke:none"
           id="path24"
           inkscape:connector-curvature="0" /></g><g
         id="g3229"
         style="fill:#000000;fill-opacity:1"><g
           id="g3206"
           style="fill:#000000;fill-opacity:1"><path
             inkscape:connector-curvature="0"
             id="path26"
             style="fill:#000000;fill-opacity:1;fill-rule:nonzero;stroke:none"
             d="m 59.156499,30.41146 6.035,-0.002 0,-3.508 -6.035,0.001 0,3.509 z m 0.004,10.513 7.603,-0.002 0.172,-3.861 -7.777,0.002 0.002,3.861 z m -1.849,-24.515 -4.384,0.002 0.004,24.513 4.387,0 -0.007,-24.515 z" /><path
             inkscape:connector-curvature="0"
             id="path28"
             style="fill:#000000;fill-opacity:1;fill-rule:nonzero;stroke:none"
             d="m 76.668499,32.75146 1.756,8.167 0.908,10e-4 5.418,-24.516 -4.377,0.001 -1.397,5.255 -5.078,0.002 0.803,3.513 3.664,0 -1.697,7.577 z m 0.175,8.168 -5.749,-24.513 -4.373,0.001 5.609,24.513 4.513,-10e-4 z" /><path
             inkscape:connector-curvature="0"
             id="path30"
             style="fill:#000000;fill-opacity:1;fill-rule:nonzero;stroke:none"
             d="m 92.568499,30.40246 2.803,-0.001 c 1.634,0.128 2.453,0.889 2.453,2.279 l 0,2.624 c 0,1.167 -0.76,1.75 -2.275,1.75 l -2.979,10e-4 0.002,3.861 3.502,-10e-4 c 4.084001,-0.001 6.129001,-1.754 6.127001,-5.259 l 0,-2.981 c -0.002,-2.1 -1.051,-3.444 -3.152001,-4.033 2.339001,-0.582 3.507001,-1.925 3.507001,-4.023 l -0.001,-2.973 c -10e-4,-3.5 -2.047,-5.246 -6.139001,-5.246 l -3.85,0.001 0,3.857 2.978,-0.001 c 1.75,0 2.626,0.585 2.626,1.745 l 10e-4,2.619 c 0,1.379 -0.937,2.14 -2.8,2.268 l -2.803,0 0,3.513 z m -1.576,-14.001 -4.383,0.002 0.004,24.514 4.385,-10e-4 -0.006,-24.515 z" /><path
             inkscape:connector-curvature="0"
             id="path32"
             style="fill:#000000;fill-opacity:1;fill-rule:nonzero;stroke:none"
             d="m 111.2705,20.25446 7.95,-0.002 -0.173,-3.857 -7.778,0.002 0.001,3.857 z m -6.063,-3.856 0.006,24.514 4.385,-0.171 -0.005,-24.344 -4.386,0.001 z" /><path
             inkscape:connector-curvature="0"
             id="path34"
             style="fill:#000000;fill-opacity:1;fill-rule:nonzero;stroke:none"
             d="m 130.9435,32.73846 1.752,8.167 0.907,0 5.425,-24.516 -4.377,0.001 -1.402,5.256 -5.075,0 0.805,3.515 3.659,-0.001 -1.694,7.578 z m 0.174,8.168 -5.748,-24.513 -4.379,0.002 5.611,24.512 4.516,-10e-4 z" /><path
             inkscape:connector-curvature="0"
             id="path36"
             style="fill:#000000;fill-opacity:1;fill-rule:nonzero;stroke:none"
             d="m 146.8415,30.38946 2.802,-0.002 c 1.634,0.129 2.456,0.889 2.457,2.278 l 10e-4,2.626 c 0,1.166 -0.765,1.749 -2.281,1.749 l -2.978,10e-4 0.002,3.861 3.503,-10e-4 c 4.086,-10e-4 6.128,-1.753 6.127,-5.258 l 0,-2.98 c -0.001,-2.102 -1.054,-3.446 -3.154,-4.035 2.338,-0.581 3.508,-1.923 3.506,-4.023 l 0,-2.973 c 0,-3.5 -2.045,-5.248 -6.139,-5.245 l -3.85,10e-4 0.001,3.858 2.978,-0.002 c 1.752,0.001 2.625,0.586 2.625,1.745 l 0.002,2.617 c -0.002,1.38 -0.934,2.142 -2.802,2.268 l -2.8,0.002 0,3.513 z m -1.577,-14 -4.386,0 0.006,24.515 4.386,-0.002 -0.006,-24.513 z" /></g><path
           d="m 108.5355,13.22746 1.041,-0.001 0,-1.224 -1.041,0 0,1.225 z m -2.442,0 1.04,0 0,-1.225 -1.04,0 0,1.225 z m 4.614,-7.393 c 0,-0.412 -0.073,-0.79 -0.217,-1.133 -0.147,-0.342 -0.352,-0.636 -0.611,-0.876 -0.26,-0.237 -0.567,-0.429 -0.919,-0.564 -0.355,-0.134 -0.736,-0.204 -1.142,-0.203 -0.406,0 -0.785,0.07 -1.14,0.203 -0.356,0.136 -0.66,0.327 -0.915,0.565 -0.255,0.24 -0.455,0.535 -0.605,0.877 -0.146,0.342 -0.217,0.72 -0.217,1.132 l 0.002,5.334 1.221,-0.001 -0.002,-5.273 c 0,-0.545 0.147,-0.967 0.451,-1.277 0.303,-0.306 0.701,-0.463 1.205,-0.463 0.504,0 0.906,0.156 1.213,0.463 0.301,0.307 0.455,0.731 0.455,1.277 l 0.002,5.272 1.221,10e-4 -0.002,-5.334 z"
           style="fill:#000000;fill-opacity:1;fill-rule:nonzero;stroke:none"
           id="path52"
           inkscape:connector-curvature="0" /><g
           id="g3214"
           style="fill:#000000;fill-opacity:1"><path
             inkscape:connector-curvature="0"
             id="path38"
             style="fill:#000000;fill-opacity:1;fill-rule:nonzero;stroke:none"
             d="m 58.681499,8.82546 c 0,0.393 -0.125,0.707 -0.375,0.926 -0.256,0.224 -0.583,0.332 -0.992,0.332 l -1.802,10e-4 0,-2.512 1.802,-0.001 c 0.41,0.001 0.736,0.105 0.991,0.325 0.251,0.224 0.376,0.527 0.376,0.929 m 0.044,-5.686 -1.69,3.388 -1.523,0.001 -10e-4,-3.387 -1.222,0 0.002,8.04 3.117,0 c 0.385,0 0.73,-0.06 1.033,-0.176 0.305,-0.115 0.566,-0.278 0.786,-0.484 0.214,-0.207 0.382,-0.457 0.502,-0.748 0.114,-0.289 0.175,-0.602 0.175,-0.941 0,-0.579 -0.158,-1.049 -0.466,-1.407 -0.308,-0.357 -0.692,-0.598 -1.142,-0.727 l 1.854,-3.559 -1.425,0 z" /><path
             inkscape:connector-curvature="0"
             id="path40"
             style="fill:#000000;fill-opacity:1;fill-rule:nonzero;stroke:none"
             d="m 61.742499,3.13946 0.002,8.041 5.138,-0.002 0,-1.097 -3.92,10e-4 -10e-4,-2.348 3.348,-0.002 -0.001,-1.08 -3.348,0.001 0,-2.42 3.92,-0.001 0,-1.094 -5.138,0.001 z" /><path
             inkscape:connector-curvature="0"
             id="path42"
             style="fill:#000000;fill-opacity:1;fill-rule:nonzero;stroke:none"
             d="m 74.023499,6.25146 c -0.002,-0.521 -0.052,-0.956 -0.162,-1.309 -0.109,-0.357 -0.298,-0.675 -0.559,-0.963 -0.31,-0.322 -0.648,-0.553 -1.019,-0.695 -0.369,-0.145 -0.768,-0.218 -1.197,-0.218 -0.42,10e-4 -0.811,0.073 -1.164,0.22 -0.356,0.146 -0.669,0.365 -0.946,0.64 -0.197,0.198 -0.349,0.402 -0.456,0.623 -0.104,0.222 -0.181,0.455 -0.229,0.709 -0.049,0.26 -0.079,0.542 -0.086,0.853 -0.01,0.313 -0.01,0.662 -0.012,1.045 0.002,0.388 0.004,0.736 0.012,1.047 0.009,0.311 0.037,0.596 0.086,0.852 0.049,0.257 0.127,0.494 0.232,0.712 0.105,0.219 0.256,0.429 0.455,0.623 0.275,0.276 0.588,0.49 0.938,0.635 0.352,0.149 0.742,0.224 1.172,0.224 0.43,0 0.81,-0.073 1.144,-0.201 0.34,-0.131 0.627,-0.307 0.871,-0.536 0.245,-0.225 0.443,-0.492 0.596,-0.79 0.151,-0.3 0.252,-0.627 0.313,-0.973 l -1.231,0.001 c -0.108,0.442 -0.305,0.788 -0.588,1.035 -0.287,0.242 -0.654,0.364 -1.106,0.364 -0.239,0 -0.464,-0.046 -0.666,-0.133 -0.203,-0.093 -0.378,-0.212 -0.521,-0.362 -0.096,-0.106 -0.177,-0.221 -0.242,-0.343 -0.066,-0.125 -0.112,-0.284 -0.145,-0.463 -0.036,-0.182 -0.06,-0.415 -0.075,-0.678 -0.015,-0.27 -0.022,-0.601 -0.022,-1.014 0,-0.405 0.007,-0.744 0.021,-1.011 0.014,-0.275 0.04,-0.501 0.075,-0.688 0.032,-0.182 0.079,-0.338 0.144,-0.461 0.066,-0.124 0.147,-0.242 0.242,-0.346 0.147,-0.151 0.319,-0.269 0.521,-0.354 0.204,-0.088 0.427,-0.132 0.667,-0.132 0.262,0 0.511,0.051 0.736,0.148 0.23,0.096 0.414,0.237 0.574,0.416 0.154,0.173 0.256,0.36 0.317,0.565 0.06,0.203 0.091,0.436 0.091,0.701 l 0,0.451 -1.717,0.001 0,1.037 2.936,-0.002 0,-1.23 z" /><path
             inkscape:connector-curvature="0"
             id="path44"
             style="fill:#000000;fill-opacity:1;fill-rule:nonzero;stroke:none"
             d="m 75.835499,11.17546 1.221,0 -0.001,-8.041 -1.223,0 0.003,8.041 z" /><path
             inkscape:connector-curvature="0"
             id="path46"
             style="fill:#000000;fill-opacity:1;fill-rule:nonzero;stroke:none"
             d="m 83.455499,7.15246 c 0,0.413 -0.008,0.745 -0.018,1.014 -0.006,0.263 -0.037,0.497 -0.066,0.677 -0.035,0.181 -0.086,0.34 -0.148,0.465 -0.065,0.121 -0.145,0.237 -0.241,0.343 -0.146,0.149 -0.318,0.27 -0.529,0.362 -0.207,0.087 -0.43,0.132 -0.672,0.133 -0.244,0 -0.465,-0.045 -0.672,-0.133 -0.207,-0.092 -0.385,-0.213 -0.527,-0.362 -0.096,-0.106 -0.178,-0.221 -0.241,-0.342 -0.066,-0.125 -0.115,-0.285 -0.148,-0.463 -0.033,-0.183 -0.056,-0.416 -0.07,-0.679 -0.008,-0.27 -0.016,-0.601 -0.016,-1.013 0,-0.407 0.008,-0.74 0.016,-1.005 0.014,-0.275 0.037,-0.501 0.068,-0.682 0.034,-0.185 0.084,-0.34 0.148,-0.464 0.065,-0.127 0.145,-0.235 0.241,-0.346 0.143,-0.15 0.32,-0.267 0.529,-0.362 0.203,-0.09 0.428,-0.134 0.67,-0.133 0.242,-0.001 0.465,0.044 0.674,0.133 0.209,0.095 0.382,0.212 0.526,0.362 0.097,0.11 0.179,0.219 0.243,0.345 0.061,0.125 0.113,0.279 0.147,0.465 0.031,0.181 0.061,0.406 0.067,0.68 0.011,0.266 0.019,0.601 0.019,1.005 m 1.222,0 c 0,-0.382 -0.004,-0.733 -0.017,-1.044 -0.004,-0.311 -0.032,-0.594 -0.078,-0.853 -0.043,-0.255 -0.118,-0.488 -0.225,-0.709 -0.105,-0.222 -0.259,-0.426 -0.451,-0.623 -0.278,-0.276 -0.598,-0.495 -0.951,-0.64 -0.354,-0.147 -0.745,-0.219 -1.176,-0.219 -0.43,0 -0.82,0.072 -1.17,0.219 -0.351,0.146 -0.664,0.365 -0.945,0.641 -0.193,0.197 -0.346,0.402 -0.452,0.623 -0.103,0.222 -0.183,0.454 -0.228,0.71 -0.049,0.258 -0.078,0.542 -0.084,0.853 -0.011,0.311 -0.013,0.661 -0.013,1.044 10e-4,0.387 0.002,0.735 0.013,1.046 0.006,0.311 0.036,0.597 0.084,0.853 0.047,0.256 0.127,0.493 0.23,0.712 0.104,0.218 0.258,0.428 0.45,0.622 0.283,0.277 0.596,0.491 0.949,0.635 0.348,0.15 0.738,0.224 1.168,0.225 0.431,-10e-4 0.822,-0.075 1.176,-0.225 0.353,-0.145 0.672,-0.36 0.951,-0.638 0.193,-0.192 0.345,-0.402 0.451,-0.62 0.106,-0.22 0.182,-0.457 0.225,-0.714 0.045,-0.255 0.072,-0.542 0.076,-0.851 0.013,-0.312 0.018,-0.659 0.017,-1.047" /><path
             inkscape:connector-curvature="0"
             id="path48"
             style="fill:#000000;fill-opacity:1;fill-rule:nonzero;stroke:none"
             d="m 91.443499,3.13146 -3.709,5.661 -0.002,-5.66 -1.221,0 0.001,8.041 1.119,0 3.709,-5.649 0.001,5.648 1.22,0 -0.001,-8.041 -1.117,0 z" /><path
             inkscape:connector-curvature="0"
             id="path50"
             style="fill:#000000;fill-opacity:1;fill-rule:nonzero;stroke:none"
             d="m 101.8545,3.12946 -3.709001,5.661 -0.002,-5.66 -1.22,0 0.002,8.04 1.114,0 3.711001,-5.65 0.003,5.65 1.219,-10e-4 -0.002,-8.041 -1.116,10e-4 z" /><path
             inkscape:connector-curvature="0"
             id="path54"
             style="fill:#000000;fill-opacity:1;fill-rule:nonzero;stroke:none"
             d="m 117.0805,8.81046 c 0,0.394 -0.125,0.708 -0.381,0.926 -0.248,0.224 -0.58,0.333 -0.983,0.333 l -1.804,0 0,-2.512 1.804,0 c 0.403,0 0.735,0.106 0.983,0.325 0.256,0.223 0.381,0.527 0.381,0.928 m 0.045,-5.685 -1.694,3.388 -1.521,10e-4 0,-3.389 -1.222,10e-4 0.003,8.041 3.12,0 c 0.378,-10e-4 0.724,-0.061 1.031,-0.176 0.302,-0.116 0.564,-0.28 0.783,-0.485 0.217,-0.207 0.387,-0.457 0.504,-0.748 0.115,-0.29 0.175,-0.602 0.175,-0.941 0,-0.578 -0.158,-1.048 -0.468,-1.406 -0.307,-0.357 -0.69,-0.599 -1.141,-0.727 l 1.852,-3.56 -1.422,10e-4 z" /><path
             inkscape:connector-curvature="0"
             id="path56"
             style="fill:#000000;fill-opacity:1;fill-rule:nonzero;stroke:none"
             d="m 125.0725,3.12346 -3.709,5.661 -0.002,-5.66 -1.222,0 0.001,8.041 1.12,0 3.71,-5.65 0.002,5.649 1.221,0 -0.002,-8.041 -1.119,0 z" /><path
             inkscape:connector-curvature="0"
             id="path58"
             style="fill:#000000;fill-opacity:1;fill-rule:nonzero;stroke:none"
             d="m 132.7195,5.44646 c 0,0.363 -0.11,0.659 -0.336,0.881 -0.223,0.226 -0.557,0.337 -0.983,0.337 l -1.922,0 -0.001,-2.448 1.923,0 c 0.426,0 0.758,0.117 0.982,0.348 0.225,0.226 0.337,0.52 0.337,0.882 m -0.121,3.467 c 0.001,0.377 -0.123,0.665 -0.36,0.862 -0.242,0.196 -0.557,0.289 -0.949,0.289 l -1.811,10e-4 0,-2.301 1.809,-10e-4 c 0.393,0 0.707,0.096 0.951,0.295 0.236,0.195 0.36,0.479 0.36,0.855 m 1.345,-3.522 c -0.002,-0.371 -0.062,-0.697 -0.183,-0.977 -0.121,-0.284 -0.29,-0.521 -0.502,-0.71 -0.215,-0.197 -0.473,-0.339 -0.77,-0.435 -0.295,-0.097 -0.623,-0.148 -0.976,-0.147 l -3.255,0 0.001,8.041 3.131,-0.001 c 0.755,0 1.347,-0.194 1.777,-0.586 0.432,-0.391 0.652,-0.93 0.652,-1.616 0,-0.219 -0.035,-0.419 -0.096,-0.603 -0.064,-0.189 -0.148,-0.35 -0.252,-0.503 -0.099,-0.145 -0.214,-0.267 -0.34,-0.366 -0.13,-0.105 -0.261,-0.182 -0.394,-0.233 0.153,-0.062 0.308,-0.147 0.448,-0.253 0.14,-0.113 0.275,-0.244 0.388,-0.392 0.112,-0.151 0.199,-0.327 0.271,-0.53 0.065,-0.203 0.1,-0.434 0.1,-0.689" /><path
             inkscape:connector-curvature="0"
             id="path60"
             style="fill:#000000;fill-opacity:1;fill-rule:nonzero;stroke:none"
             d="m 135.7125,3.12146 0.002,8.04 5.141,-10e-4 -0.001,-1.098 -3.922,10e-4 -0.001,-2.348 3.348,-0.001 -0.002,-1.082 -3.346,0.001 0,-2.419 3.922,-10e-4 -0.001,-1.095 -5.14,0.003 z" /><path
             inkscape:connector-curvature="0"
             id="path62"
             style="fill:#000000;fill-opacity:1;fill-rule:nonzero;stroke:none"
             d="m 146.9165,8.80346 c 0,0.394 -0.127,0.706 -0.381,0.926 -0.252,0.224 -0.58,0.332 -0.985,0.333 l -1.808,0 0,-2.513 1.807,0 c 0.406,0 0.732,0.106 0.986,0.325 0.254,0.224 0.381,0.527 0.381,0.929 m 0.039,-5.686 -1.69,3.389 -1.523,0 -0.002,-3.388 -1.221,0.001 0.002,8.04 3.116,0 c 0.384,-10e-4 0.726,-0.061 1.033,-0.176 0.306,-0.115 0.57,-0.278 0.785,-0.484 0.22,-0.208 0.386,-0.456 0.51,-0.747 0.111,-0.29 0.169,-0.604 0.168,-0.942 0,-0.58 -0.155,-1.049 -0.461,-1.406 -0.313,-0.358 -0.693,-0.6 -1.149,-0.729 l 1.86,-3.558 -1.428,0 z" /><path
             inkscape:connector-curvature="0"
             id="path64"
             style="fill:#000000;fill-opacity:1;fill-rule:nonzero;stroke:none"
             d="m 155.5105,6.23146 c 0,-0.521 -0.055,-0.957 -0.166,-1.309 -0.104,-0.357 -0.294,-0.674 -0.559,-0.964 -0.31,-0.321 -0.648,-0.552 -1.018,-0.695 -0.367,-0.145 -0.769,-0.217 -1.193,-0.216 -0.426,-10e-4 -0.812,0.071 -1.168,0.219 -0.352,0.146 -0.672,0.364 -0.949,0.641 -0.193,0.196 -0.344,0.401 -0.451,0.623 -0.108,0.22 -0.182,0.453 -0.231,0.709 -0.053,0.258 -0.078,0.541 -0.088,0.852 -0.006,0.312 -0.008,0.662 -0.008,1.045 0.001,0.387 0.002,0.736 0.01,1.047 0.008,0.311 0.034,0.597 0.088,0.852 0.047,0.256 0.125,0.494 0.23,0.712 0.108,0.219 0.257,0.428 0.452,0.622 0.275,0.277 0.592,0.491 0.943,0.636 0.352,0.149 0.741,0.223 1.168,0.223 0.43,0 0.814,-0.072 1.148,-0.202 0.336,-0.13 0.627,-0.305 0.871,-0.534 0.243,-0.225 0.44,-0.493 0.593,-0.79 0.15,-0.3 0.256,-0.627 0.318,-0.973 l -1.236,0.001 c -0.106,0.442 -0.3,0.788 -0.588,1.034 -0.287,0.243 -0.653,0.364 -1.106,0.365 -0.238,0 -0.461,-0.047 -0.666,-0.133 -0.205,-0.093 -0.377,-0.213 -0.517,-0.363 -0.098,-0.106 -0.177,-0.22 -0.243,-0.342 -0.064,-0.125 -0.111,-0.284 -0.146,-0.464 -0.037,-0.182 -0.062,-0.415 -0.076,-0.678 -0.014,-0.268 -0.027,-0.601 -0.026,-1.013 -0.001,-0.406 0.01,-0.744 0.026,-1.012 0.014,-0.274 0.038,-0.5 0.074,-0.687 0.035,-0.182 0.084,-0.338 0.147,-0.461 0.064,-0.124 0.144,-0.242 0.243,-0.346 0.143,-0.152 0.313,-0.269 0.518,-0.355 0.203,-0.088 0.426,-0.131 0.67,-0.131 0.258,0 0.504,0.05 0.732,0.147 0.223,0.097 0.414,0.237 0.576,0.417 0.149,0.173 0.256,0.36 0.317,0.565 0.055,0.203 0.088,0.435 0.088,0.7 l 0,0.451 -1.711,0 0,1.038 2.934,-0.001 0,-1.23 z" /></g></g></g></g></svg>