<?xml version="1.0" encoding="UTF-8" standalone="no"?>
<!-- Created with Inkscape (http://www.inkscape.org/) -->

<svg
   xmlns:dc="http://purl.org/dc/elements/1.1/"
   xmlns:cc="http://creativecommons.org/ns#"
   xmlns:rdf="http://www.w3.org/1999/02/22-rdf-syntax-ns#"
   xmlns:svg="http://www.w3.org/2000/svg"
   xmlns="http://www.w3.org/2000/svg"
   xmlns:sodipodi="http://sodipodi.sourceforge.net/DTD/sodipodi-0.dtd"
   xmlns:inkscape="http://www.inkscape.org/namespaces/inkscape"
   id="svg2"
   version="1.1"
   inkscape:version="0.92.2 (unknown)"
   width="3779.5273"
   height="1133.8582"
   xml:space="preserve"
   sodipodi:docname="logo-cut.svg"><metadata
     id="metadata8"><rdf:RDF><cc:Work
         rdf:about=""><dc:format>image/svg+xml</dc:format><dc:type
           rdf:resource="http://purl.org/dc/dcmitype/StillImage" /><dc:title /></cc:Work></rdf:RDF></metadata><defs
     id="defs6"><clipPath
       clipPathUnits="userSpaceOnUse"
       id="clipPath16"><path
         d="M 0,841.89 H 595.276 V 0 H 0 Z"
         id="path18"
         inkscape:connector-curvature="0" /></clipPath></defs><sodipodi:namedview
     pagecolor="#ffffff"
     bordercolor="#666666"
     borderopacity="1"
     objecttolerance="10"
     gridtolerance="10"
     guidetolerance="10"
     inkscape:pageopacity="0"
     inkscape:pageshadow="2"
     inkscape:window-width="1600"
     inkscape:window-height="843"
     id="namedview4"
     showgrid="false"
     inkscape:zoom="6.2861869"
     inkscape:cx="32.538318"
     inkscape:cy="1099.5657"
     inkscape:window-x="0"
     inkscape:window-y="0"
     inkscape:window-maximized="1"
     inkscape:current-layer="g4163"
     inkscape:document-units="mm"
     units="mm"
     showguides="true"
     inkscape:guide-bbox="true"><sodipodi:guide
       position="77.502718,1095.8367"
       orientation="0,1"
       id="guide820"
       inkscape:locked="false" /><sodipodi:guide
       position="37.907715,1134.5318"
       orientation="1,0"
       id="guide822"
       inkscape:locked="false" /></sodipodi:namedview><g
     id="g10"
     inkscape:groupmode="layer"
     inkscape:label="Logo2"
     transform="matrix(1.25,0,0,-1.25,0,1133.8582)"><g
       id="g4162"
       transform="matrix(0.92241791,0,0,0.92241791,139.44854,72.842036)"
       style="fill:#000000;fill-opacity:1"><g
         id="g4163"
         transform="matrix(1.4491123,0,0,1.4491123,-155.98496,834.41325)"
         style="stroke-width:0.41404659"><path
           id="path845"
           style="fill:none;fill-opacity:1;fill-rule:nonzero;stroke:#000000;stroke-width:0.44164973"
           d="M 5.6789985,35.236175 C 4.2188476,32.264074 3.3874798,28.926258 3.3855385,25.389218 3.3813759,13.492613 12.644355,3.7615012 24.348365,3.0155612 v 2.9530449 l -4.107862,2.3137975 -0.183986,5.2355744 c 0.218573,0.07608 0.432089,0.168337 0.642215,0.281408 2.492997,1.443508 2.804193,5.581048 0.696601,9.244767 -2.112872,3.658436 -5.838847,5.456479 -8.336068,4.016141 -2.495111,-1.444562 -2.802139,-5.576966 -0.709329,-9.234345 0.390685,-0.660463 0.820134,-1.247439 1.287901,-1.78109 l -0.167786,-3.936236 -5.5022211,3.11054 0.0891,18.643556 z m 40.1089365,0.218872 -2.640604,-1.52516 -0.0023,-5.323588 -3.769976,-2.24663 c -0.247083,0.271582 -0.535797,0.505577 -0.862073,0.693676 -2.483495,1.439281 -6.233509,-0.356648 -8.345325,-4.016141 -2.113928,-3.657377 -1.794893,-7.795671 0.689658,-9.241292 2.501445,-1.443508 6.234668,0.356749 8.346482,4.017299 0.477267,0.824257 0.819643,1.665216 1.052998,2.497928 l 2.884761,1.63865 V 15.197161 L 27.139397,6.0404058 V 3.0167191 c 11.73039,0.6990083 21.039809,10.4315129 21.044984,22.3516539 0.007,3.632925 -0.866129,7.053369 -2.396446,10.086674 z M 25.791324,47.799933 C 17.958739,47.803056 11.068847,43.762362 7.0606288,37.66462 l 2.1627028,-1.249544 4.8148774,2.794391 3.661205,-2.069447 c -0.118262,-0.367744 -0.186402,-0.742541 -0.187458,-1.131422 -0.0031,-2.887014 3.425541,-5.227163 7.641781,-5.223994 4.223631,-0.0053 7.649332,2.334157 7.655667,5.215888 0,2.883843 -3.425295,5.224399 -7.651038,5.228626 -0.93659,-0.0021 -1.83833,-0.124792 -2.667218,-0.33931 l -2.664903,1.688447 5.878293,3.419742 16.21622,-9.550494 2.454304,1.418618 c -4.023801,5.978443 -10.833037,9.926596 -18.583738,9.933812 z"
           inkscape:connector-curvature="0" /></g></g></g></svg>